<mxfile host="app.diagrams.net" modified="2024-05-14T22:09:40.581Z" agent="Mozilla/5.0 (Macintosh; Intel Mac OS X 10_15_7) AppleWebKit/537.36 (KHTML, like Gecko) Chrome/124.0.0.0 Safari/537.36" etag="gK1HZwfivgJ_8gQCJhij" version="24.3.1" type="device">
  <diagram name="Page-1" id="0hBKw3SphC0oi_QGmSh2">
    <mxGraphModel dx="984" dy="660" grid="1" gridSize="10" guides="1" tooltips="1" connect="1" arrows="1" fold="1" page="1" pageScale="1" pageWidth="827" pageHeight="1169" math="0" shadow="0">
      <root>
        <mxCell id="0" />
        <mxCell id="1" parent="0" />
        <mxCell id="J2vyYaArHUMC5gqbkFtl-2" value="" style="ellipse;whiteSpace=wrap;html=1;aspect=fixed;fillColor=#dae8fc;strokeColor=#6c8ebf;" vertex="1" parent="1">
          <mxGeometry x="170" y="96" width="280" height="280" as="geometry" />
        </mxCell>
        <mxCell id="J2vyYaArHUMC5gqbkFtl-3" value="" style="ellipse;whiteSpace=wrap;html=1;aspect=fixed;fillColor=#d5e8d4;strokeColor=#82b366;" vertex="1" parent="1">
          <mxGeometry x="225" y="200" width="170" height="170" as="geometry" />
        </mxCell>
        <mxCell id="J2vyYaArHUMC5gqbkFtl-4" value="" style="ellipse;whiteSpace=wrap;html=1;aspect=fixed;fillColor=#fff2cc;strokeColor=#d6b656;" vertex="1" parent="1">
          <mxGeometry x="258" y="260" width="104" height="104" as="geometry" />
        </mxCell>
        <mxCell id="J2vyYaArHUMC5gqbkFtl-5" value="&lt;font style=&quot;font-size: 34px;&quot;&gt;人工智能&lt;/font&gt;" style="text;html=1;align=center;verticalAlign=middle;whiteSpace=wrap;rounded=0;" vertex="1" parent="1">
          <mxGeometry x="225" y="143" width="170" height="30" as="geometry" />
        </mxCell>
        <mxCell id="J2vyYaArHUMC5gqbkFtl-6" value="&lt;font style=&quot;font-size: 20px;&quot;&gt;机器学习&lt;/font&gt;" style="text;html=1;align=center;verticalAlign=middle;whiteSpace=wrap;rounded=0;" vertex="1" parent="1">
          <mxGeometry x="245" y="223" width="130" height="30" as="geometry" />
        </mxCell>
        <mxCell id="J2vyYaArHUMC5gqbkFtl-7" value="&lt;font style=&quot;font-size: 18px;&quot;&gt;深度学习&lt;/font&gt;" style="text;html=1;align=center;verticalAlign=middle;whiteSpace=wrap;rounded=0;" vertex="1" parent="1">
          <mxGeometry x="270" y="300" width="80" height="30" as="geometry" />
        </mxCell>
        <mxCell id="J2vyYaArHUMC5gqbkFtl-8" value="&lt;font style=&quot;font-size: 48px;&quot;&gt;机器学习书 MLBook&lt;/font&gt;" style="text;html=1;align=left;verticalAlign=middle;whiteSpace=wrap;rounded=0;" vertex="1" parent="1">
          <mxGeometry x="550" y="160" width="500" height="30" as="geometry" />
        </mxCell>
        <mxCell id="J2vyYaArHUMC5gqbkFtl-10" value="&lt;font style=&quot;font-size: 18px;&quot;&gt;by &lt;i&gt;Xiang &quot;Kevin&quot; Shi (@KevinZonda)&lt;/i&gt;&lt;/font&gt;" style="text;html=1;align=left;verticalAlign=middle;whiteSpace=wrap;rounded=0;" vertex="1" parent="1">
          <mxGeometry x="550" y="300" width="320" height="30" as="geometry" />
        </mxCell>
        <mxCell id="J2vyYaArHUMC5gqbkFtl-11" value="&lt;font color=&quot;#666666&quot; style=&quot;font-size: 32px;&quot;&gt;以高中数学视角&lt;/font&gt;" style="text;html=1;align=left;verticalAlign=middle;whiteSpace=wrap;rounded=0;" vertex="1" parent="1">
          <mxGeometry x="550" y="220" width="350" height="30" as="geometry" />
        </mxCell>
      </root>
    </mxGraphModel>
  </diagram>
</mxfile>
